<mxfile host="app.diagrams.net" modified="2023-11-02T07:38:49.738Z" agent="Mozilla/5.0 (Macintosh; Intel Mac OS X 10_15_7) AppleWebKit/537.36 (KHTML, like Gecko) Chrome/118.0.0.0 Safari/537.36" version="22.0.8" etag="cgDcHLrrSROTfDecMTgk" type="github">
  <diagram name="第 1 页" id="9rWqkf2nH9NccEs0v7kj">
    <mxGraphModel>
      <root>
        <mxCell id="0" />
        <mxCell id="1" parent="0" />
      </root>
    </mxGraphModel>
  </diagram>
</mxfile>
